HIERARCHY
ROOT Hips
{
  OFFSET 38.6237 98.8912 2.99592
  CHANNELS 6 Xposition Yposition Zposition Zrotation Xrotation Yrotation
  JOINT spine
  {
    OFFSET 0 8.30104 0.477351
    CHANNELS 3 Zrotation Xrotation Yrotation
    JOINT spine1
    {
      OFFSET 0 10.4565 0
      CHANNELS 3 Zrotation Xrotation Yrotation
      JOINT spine2
      {
        OFFSET 0 10.0192 0
        CHANNELS 3 Zrotation Xrotation Yrotation
        JOINT Neck
        {
          OFFSET 0 25.7235 1.22641
          CHANNELS 3 Zrotation Xrotation Yrotation
          JOINT Head
          {
            OFFSET 0 7.77175 0
            CHANNELS 3 Zrotation Xrotation Yrotation
            End Site
            {
              OFFSET 0 18.812 -6.20394
            }
          }
        }
        JOINT RightShoulder
        {
          OFFSET -4.2188 10.82 -0.587439
          CHANNELS 3 Zrotation Xrotation Yrotation
          JOINT RightArm
          {
            OFFSET 0 14.1914 0
            CHANNELS 3 Zrotation Xrotation Yrotation
            JOINT RightArmRoll
            {
              OFFSET 0 7.16408 0
              CHANNELS 3 Zrotation Xrotation Yrotation
              JOINT RightForeArm
              {
                OFFSET 0 20.8665 0
                CHANNELS 3 Zrotation Xrotation Yrotation
                JOINT RightForeArmRoll
                {
                  OFFSET 0 8.03921 0
                  CHANNELS 3 Zrotation Xrotation Yrotation
                  JOINT RightHand
                  {
                    OFFSET 0 16.133 0
                    CHANNELS 3 Zrotation Xrotation Yrotation
                    End Site
                    {
                      OFFSET 0 0 0
                    }
                  }
                }
              }
            }
          }
        }
        JOINT LeftShoulder
        {
          OFFSET 4.2188 10.82 -0.587439
          CHANNELS 3 Zrotation Xrotation Yrotation
          JOINT LeftArm
          {
            OFFSET 0 14.1914 0
            CHANNELS 3 Zrotation Xrotation Yrotation
            JOINT LeftArmRoll
            {
              OFFSET 0 7.16408 0
              CHANNELS 3 Zrotation Xrotation Yrotation
              JOINT LeftForeArm
              {
                OFFSET 0 20.8665 0
                CHANNELS 3 Zrotation Xrotation Yrotation
                JOINT LeftForeArmRoll
                {
                  OFFSET 0 8.03921 0
                  CHANNELS 3 Zrotation Xrotation Yrotation
                  JOINT LeftHand
                  {
                    OFFSET 0 16.133 0
                    CHANNELS 3 Zrotation Xrotation Yrotation
                    End Site
                    {
                      OFFSET 0 0 0
                    }
                  }
                }
              }
            }
          }
        }
      }
    }
  }
  JOINT RightUpLeg
  {
    OFFSET -7.35773 -1.34921 -1.13182
    CHANNELS 3 Zrotation Xrotation Yrotation
    JOINT RightUpLegRoll
    {
      OFFSET 0 18.9168 0
      CHANNELS 3 Zrotation Xrotation Yrotation
      JOINT RightLeg
      {
        OFFSET 0 -23.4256 0
        CHANNELS 3 Zrotation Xrotation Yrotation
        JOINT RightLegRoll
        {
          OFFSET 0 23.5023 0
          CHANNELS 3 Zrotation Xrotation Yrotation
          JOINT RightFoot
          {
            OFFSET 0 19.5617 0
            CHANNELS 3 Zrotation Xrotation Yrotation
            JOINT RightToeBase
            {
              OFFSET 0 16.3526 0
              CHANNELS 3 Zrotation Xrotation Yrotation
              End Site
              {
                OFFSET 0.00693125 7.91944 -0.912837
              }
            }
          }
        }
      }
    }
  }
  JOINT LeftUpLeg
  {
    OFFSET 7.35773 -1.34921 -1.13182
    CHANNELS 3 Zrotation Xrotation Yrotation
    JOINT LeftUpLegRoll
    {
      OFFSET 0 18.9169 0
      CHANNELS 3 Zrotation Xrotation Yrotation
      JOINT LeftLeg
      {
        OFFSET 0 23.4255 0
        CHANNELS 3 Zrotation Xrotation Yrotation
        JOINT LeftLegRoll
        {
          OFFSET 0 23.7195 0
          CHANNELS 3 Zrotation Xrotation Yrotation
          JOINT LeftFoot
          {
            OFFSET 0 19.3444 0
            CHANNELS 3 Zrotation Xrotation Yrotation
            JOINT LeftToeBase
            {
              OFFSET 0 16.3526 0
              CHANNELS 3 Zrotation Xrotation Yrotation
              End Site
              {
                OFFSET -0.0310629 7.91944 -0.912837
              }
            }
          }
        }
      }
    }
  }
}
MOTION
Frames: 13
Frame Time: 0.00208333
38.3632 98.8256 2.44332 0.8733 -3.553 1.68568 -0.000634811 -1.18757 0.0482505 -0.00115003 1.62767 0.0915535 -0.00215339 3.27275 0.0920375 -3.1622 23.413 -0.717748 0.848664 -10.4392 -1.66121 72.4583 -1.51733 -2.30664 94.7188 27.8577 33.0228 -1.11319e-014 1.90833e-014 -3.18055e-015 -1.55961 -0.0139913 1.38208 -9.5878e-007 1.34095e-006 -3.01118 8.03026 -4.95139 0.697635 -68.0549 3.81344 -0.816635 -98.7287 12.2126 -17.9778 -1.19271e-015 0 -0 -8.98885 6.6254 1.20493 1.20172e-005 -3.88586e-006 3 -8.02903 -4.95143 -0.697677 175.864 -1.52598 1.48906 180 7.01544e-015 178.908 175.584 4.9322 179.785 4.31939e-007 -8.76743e-006 0.0561437 -18.4607 67.7486 19.3453 8.13649 25.2327 -3.48774 -176.043 -1.43947 0.937026 4.54188e-006 -4.6773e-006 -1.16756 -3.51201 -8.45919 0.415529 5.78419e-006 -2.59003e-006 -0.105423 18.2228 67.3218 -18.9732 -8.13649 25.2327 3.48774 
38.3611 98.8264 2.4485 0.866104 -3.5664 1.70435 0.00232602 -1.18544 0.0482694 0.00438798 1.63194 0.0905757 0.00338732 3.27702 0.0909501 -3.14356 23.4054 -0.730934 0.832942 -10.4312 -1.67065 72.396 -1.55017 -2.3162 94.6891 27.909 33.2157 -4.77083e-015 0 3.18055e-015 -1.75533 -0.0152847 1.41237 -9.5878e-007 1.34095e-006 -3.01247 8.03026 -4.95139 0.697635 -68.0278 3.82167 -0.825027 -98.785 12.1986 -17.9907 -3.26007e-014 -6.36111e-015 -1.27222e-014 -8.97143 6.59763 1.20096 1.20172e-005 -3.88586e-006 3 -8.02903 -4.95143 -0.697677 175.876 -1.54819 1.48283 180 7.01544e-015 178.908 175.587 4.92573 179.785 4.31939e-007 -8.76743e-006 0.0561437 -18.4628 67.7512 19.3475 8.13649 25.2327 -3.48774 -176.034 -1.44987 0.934366 4.54188e-006 -4.6773e-006 -1.16791 -3.50668 -8.4631 0.416036 5.78419e-006 -2.59003e-006 -0.105423 18.226 67.3259 -18.9767 -8.13649 25.2327 3.48774 
38.3631 98.8335 2.46084 0.859084 -3.57983 1.72308 0.0053447 -1.18329 0.0482694 0.0100038 1.63624 0.0895 0.00900628 3.28132 0.0897633 -3.1281 23.3963 -0.743282 0.820143 -10.4215 -1.67977 72.3326 -1.583 -2.32565 94.6631 27.9596 33.4092 3.18055e-015 -3.18055e-015 -0 -1.95294 -0.0165903 1.44274 -9.5878e-007 1.34095e-006 -3.01376 8.03026 -4.95139 0.697635 -68.0017 3.82964 -0.833136 -98.841 12.1856 -18.0048 2.78299e-015 4.77083e-015 -3.18055e-015 -8.95294 6.5685 1.1968 1.20172e-005 -3.88586e-006 3 -8.02903 -4.95143 -0.697677 175.887 -1.57051 1.47673 180 7.01544e-015 178.908 175.589 4.91912 179.785 4.31939e-007 -8.76743e-006 0.0561437 -18.4649 67.7537 19.3498 8.13649 25.2327 -3.48774 -176.026 -1.46039 0.931683 4.54188e-006 -4.6773e-006 -1.16826 -3.50144 -8.46688 0.416514 5.78419e-006 -2.59003e-006 -0.105423 18.2292 67.3299 -18.9801 -8.13649 25.2327 3.48774 
38.3579 98.8259 2.46396 0.85219 -3.59329 1.74185 0.00840388 -1.18113 0.0482562 0.0156741 1.64055 0.0883559 0.0146801 3.28563 0.0885067 -3.11486 23.3861 -0.75504 0.809391 -10.4106 -1.68869 72.2685 -1.61581 -2.33501 94.6395 28.0097 33.6033 7.95139e-015 -6.36111e-015 9.54166e-015 -2.15186 -0.0179046 1.47316 -9.5878e-007 1.34095e-006 -3.01505 8.03026 -4.95139 0.697635 -67.9762 3.83743 -0.841046 -98.897 12.1732 -18.0198 1.19271e-015 0 -0 -8.9337 6.53843 1.19251 1.20172e-005 -3.88586e-006 3 -8.02903 -4.95143 -0.697677 175.899 -1.59291 1.47074 180 7.01544e-015 178.908 175.592 4.91244 179.785 4.31939e-007 -8.76743e-006 0.0561437 -18.4671 67.7564 19.3521 8.13649 25.2327 -3.48774 -176.017 -1.471 0.928985 4.54188e-006 -4.6773e-006 -1.1686 -3.49625 -8.47059 0.416972 5.78419e-006 -2.59003e-006 -0.105423 18.2323 67.3339 -18.9835 -8.13649 25.2327 3.48774 
38.3631 98.8266 2.46535 0.845372 -3.60677 1.76065 0.0114862 -1.17897 0.0482355 0.0213757 1.64488 0.0871726 0.0203853 3.28996 0.0872104 -3.10289 23.3754 -0.766462 0.799811 -10.399 -1.69748 72.2039 -1.64861 -2.34432 94.6171 28.0591 33.7976 -3.18055e-015 1.27222e-014 -3.18055e-015 -2.35154 -0.0192238 1.50361 -9.5878e-007 1.34095e-006 -3.01633 8.03026 -4.95139 0.697635 -67.951 3.8451 -0.848842 -98.9528 12.1612 -18.0351 6.36111e-015 4.77083e-015 3.18055e-015 -8.91402 6.50782 1.18815 1.20172e-005 -3.88586e-006 3 -8.02903 -4.95143 -0.697677 175.91 -1.61535 1.46479 180 7.01544e-015 178.908 175.595 4.90573 179.785 4.31939e-007 -8.76743e-006 0.0561437 -18.4692 67.759 19.3544 8.13649 25.2327 -3.48774 -176.009 -1.48166 0.926278 4.54188e-006 -4.6773e-006 -1.16895 -3.4911 -8.47424 0.417418 5.78419e-006 -2.59003e-006 -0.105423 18.2354 67.3378 -18.9869 -8.13649 25.2327 3.48774 
38.3645 98.8297 2.47325 0.83858 -3.62026 1.77946 0.0145743 -1.1768 0.0482129 0.0270853 1.64921 0.0859796 0.0260985 3.29429 0.0859041 -3.09125 23.3644 -0.777799 0.790526 -10.3873 -1.70624 72.1392 -1.68141 -2.35362 94.5945 28.108 33.9922 6.36111e-015 -6.36111e-015 3.18055e-015 -2.5514 -0.0205442 1.53406 -9.5878e-007 1.34095e-006 -3.01762 8.03026 -4.95139 0.697635 -67.9259 3.85276 -0.85661 -99.0087 12.1493 -18.0506 -4.77083e-015 0 -0 -8.89425 6.47707 1.18376 1.20172e-005 -3.88586e-006 3 -8.02903 -4.95143 -0.697677 175.921 -1.63781 1.45886 180 7.01544e-015 178.908 175.598 4.89898 179.785 4.31939e-007 -8.76743e-006 0.0561437 -18.4714 67.7616 19.3567 8.13649 25.2327 -3.48774 -176.001 -1.49234 0.92357 4.54188e-006 -4.6773e-006 -1.1693 -3.48595 -8.47788 0.417862 5.78419e-006 -2.59003e-006 -0.105423 18.2384 67.3417 -18.9902 -8.13649 25.2327 3.48774 
38.3596 98.8294 2.47131 0.831763 -3.63373 1.79825 0.0176509 -1.17464 0.0481941 0.0327794 1.65353 0.0848061 0.0317963 3.29861 0.0846176 -3.07897 23.3538 -0.789301 0.780661 -10.3758 -1.71506 72.0747 -1.71422 -2.36295 94.5707 28.1563 34.1869 -1.59028e-015 0 6.36111e-015 -2.75088 -0.021862 1.5645 -9.5878e-007 1.34095e-006 -3.0189 8.03026 -4.95139 0.697635 -67.9006 3.86046 -0.864435 -99.0646 12.1372 -18.0659 6.36111e-015 4.77083e-015 -3.18055e-015 -8.87469 6.4466 1.17942 1.20172e-005 -3.88586e-006 3 -8.02903 -4.95143 -0.697677 175.932 -1.66024 1.45291 180 7.01544e-015 178.908 175.6 4.89225 179.786 4.31939e-007 -8.76743e-006 0.0561437 -18.4735 67.7643 19.3591 8.13649 25.2327 -3.48774 -175.992 -1.50298 0.920865 4.54188e-006 -4.6773e-006 -1.16965 -3.48079 -8.48155 0.418312 5.78419e-006 -2.59003e-006 -0.105423 18.2415 67.3456 -18.9936 -8.13649 25.2327 3.48774 
38.3603 98.8342 2.47771 0.824871 -3.64718 1.81702 0.0206985 -1.17248 0.0481847 0.0384349 1.65784 0.0836815 0.0374552 3.30292 0.0833809 -3.06512 23.344 -0.80122 0.769339 -10.3653 -1.72404 72.0107 -1.74703 -2.37234 94.5443 28.2041 34.3816 -3.18055e-015 1.59028e-014 3.18055e-015 -2.94943 -0.0231737 1.59491 -9.5878e-007 1.34095e-006 -3.02019 8.03026 -4.95139 0.697635 -67.8749 3.86829 -0.872402 -99.1206 12.1246 -18.0806 3.97569e-015 -3.18055e-015 -0 -8.85568 6.4168 1.17517 1.20172e-005 -3.88586e-006 3 -8.02903 -4.95143 -0.697677 175.944 -1.68262 1.44688 180 7.01544e-015 178.908 175.603 4.88559 179.786 4.31939e-007 -8.76743e-006 0.0561437 -18.4756 67.7669 19.3614 8.13649 25.2327 -3.48774 -175.984 -1.51357 0.918171 4.54188e-006 -4.6773e-006 -1.17 -3.47559 -8.48527 0.418776 5.78419e-006 -2.59003e-006 -0.105423 18.2447 67.3496 -18.997 -8.13649 25.2327 3.48774 
38.3609 98.8346 2.48915 0.817854 -3.6606 1.83573 0.0236998 -1.17034 0.0481903 0.0440284 1.66213 0.0826352 0.0430518 3.30721 0.0822239 -3.04873 23.3353 -0.813809 0.755683 -10.3561 -1.73325 71.9476 -1.77986 -2.38183 94.5141 28.2513 34.5761 6.36111e-015 0 3.18055e-015 -3.14646 -0.0244754 1.62525 -9.5878e-007 1.34095e-006 -3.02148 8.03026 -4.95139 0.697635 -67.8485 3.87634 -0.880597 -99.1768 12.1113 -18.0943 6.36111e-015 1.59028e-015 -0 -8.83754 6.38807 1.17107 1.20172e-005 -3.88586e-006 3 -8.02903 -4.95143 -0.697677 175.955 -1.70491 1.44075 180 7.01544e-015 178.908 175.606 4.87904 179.786 4.31939e-007 -8.76743e-006 0.0561437 -18.4777 67.7694 19.3636 8.13649 25.2327 -3.48774 -175.975 -1.52405 0.915496 4.54188e-006 -4.6773e-006 -1.17035 -3.47032 -8.4891 0.419262 5.78419e-006 -2.59003e-006 -0.105423 18.2479 67.3536 -19.0004 -8.13649 25.2327 3.48774 
38.3629 98.8333 2.49283 0.810662 -3.67397 1.85438 0.0266375 -1.16821 0.0482167 0.0495366 1.66639 0.0816965 0.0485627 3.31147 0.0811763 -3.02885 23.3283 -0.827318 0.738817 -10.3488 -1.7428 71.8857 -1.8127 -2.39145 94.4789 28.2979 34.7703 -1.90833e-014 2.22639e-014 -1.59028e-014 -3.34142 -0.0257635 1.65552 -9.5878e-007 1.34095e-006 -3.02277 8.03026 -4.95139 0.697635 -67.821 3.88468 -0.889104 -99.2332 12.0969 -18.1068 1.27222e-014 1.59028e-015 -3.18055e-015 -8.82059 6.36083 1.16718 1.20172e-005 -3.88586e-006 3 -8.02903 -4.95143 -0.697677 175.967 -1.72708 1.43447 180 7.01544e-015 178.908 175.609 4.87262 179.786 4.31939e-007 -8.76743e-006 0.0561437 -18.4798 67.772 19.3659 8.13649 25.2327 -3.48774 -175.967 -1.5344 0.912844 4.54188e-006 -4.6773e-006 -1.1707 -3.46495 -8.49305 0.419781 5.78419e-006 -2.59003e-006 -0.105423 18.2511 67.3578 -19.004 -8.13649 25.2327 3.48774 
38.3588 98.8325 2.49415 0.803243 -3.68729 1.87293 0.0294942 -1.16609 0.0482695 0.0549361 1.67063 0.0808948 0.0539643 3.3157 0.0802681 -3.00454 23.3233 -0.841999 0.717864 -10.3438 -1.75278 71.8252 -1.84557 -2.40125 94.4374 28.344 34.9641 4.77083e-015 -3.18055e-015 -0 -3.53374 -0.0270344 1.68568 -9.5878e-007 1.34095e-006 -3.02406 8.03026 -4.95139 0.697635 -67.7923 3.89339 -0.898009 -99.2898 12.0812 -18.1177 -3.18055e-015 -1.59028e-015 -0 -8.80516 6.33548 1.16355 1.20172e-005 -3.88586e-006 3 -8.02903 -4.95143 -0.697677 175.978 -1.74909 1.42799 180 7.01544e-015 178.908 175.612 4.86636 179.786 4.31939e-007 -8.76743e-006 0.0561437 -18.4818 67.7744 19.368 8.13649 25.2327 -3.48774 -175.958 -1.54458 0.910224 4.54188e-006 -4.6773e-006 -1.17104 -3.45948 -8.49718 0.420339 5.78419e-006 -2.59003e-006 -0.105423 18.2545 67.362 -19.0076 -8.13649 25.2327 3.48774 
38.3583 98.8317 2.49965 0.795548 -3.70053 1.89138 0.0322525 -1.164 0.0483542 0.0602036 1.67482 0.0802594 0.0592332 3.31989 0.079529 -2.97484 23.3209 -0.858106 0.691945 -10.3418 -1.76327 71.7666 -1.87847 -2.41127 94.3885 28.3897 35.1574 -1.11319e-014 9.54166e-015 -3.18055e-015 -3.72286 -0.0282842 1.71572 -9.5878e-007 1.34095e-006 -3.02536 8.03026 -4.95139 0.697635 -67.7621 3.90255 -0.907396 -99.3467 12.0639 -18.1266 9.14409e-015 3.18055e-015 3.18055e-015 -8.79157 6.31241 1.16025 1.20172e-005 -3.88586e-006 3 -8.02903 -4.95143 -0.697677 175.991 -1.77091 1.42128 180 7.01544e-015 178.908 175.615 4.86033 179.786 4.31939e-007 -8.76743e-006 0.0561437 -18.4838 67.7768 19.3702 8.13649 25.2327 -3.48774 -175.949 -1.55454 0.907641 4.54188e-006 -4.6773e-006 -1.17138 -3.45385 -8.50151 0.420946 5.78419e-006 -2.59003e-006 -0.105423 18.258 67.3664 -19.0114 -8.13649 25.2327 3.48774 
38.3613 98.8266 2.5066 0.787527 -3.71369 1.90971 0.034895 -1.16193 0.0484767 0.0653157 1.67896 0.0798197 0.0643459 3.32403 0.078989 -2.93879 23.3215 -0.875889 0.660183 -10.3432 -1.77437 71.7101 -1.91141 -2.42153 94.3308 28.4348 35.35 -4.77083e-015 3.18055e-015 -0 -3.90822 -0.0295093 1.74561 -9.5878e-007 1.34095e-006 -3.02666 8.03026 -4.95139 0.697635 -67.7301 3.91224 -0.917352 -99.404 12.0447 -18.1331 9.14409e-015 1.59028e-015 -3.18055e-015 -8.78015 6.29205 1.15732 1.20172e-005 -3.88586e-006 3 -8.02903 -4.95143 -0.697677 176.003 -1.79251 1.4143 180 7.01544e-015 178.908 175.618 4.85453 179.786 4.31939e-007 -8.76743e-006 0.0561437 -18.4857 67.7792 19.3722 8.13649 25.2327 -3.48774 -175.94 -1.56426 0.905102 4.54188e-006 -4.6773e-006 -1.17171 -3.44806 -8.50608 0.42161 5.78419e-006 -2.59003e-006 -0.105423 18.2616 67.371 -19.0153 -8.13649 25.2327 3.48774 
